<svg width="212" height="48" viewBox="0 0 212 48" fill="none" xmlns="http://www.w3.org/2000/svg">
<g clip-path="url(#clip0_4538_2789)">
<path d="M15.8665 0.00338302C15.4487 0.0247604 15.0895 0.237017 15.0895 0.672899V14.8637C15.0895 14.8637 15.1402 17.1564 17.1735 19.4492C19.2067 21.742 27.4286 31.2161 27.4286 31.2161V12.6509L16.9952 0.479715C16.7603 0.151634 16.2842 -0.0179673 15.8665 0.00338302ZM40.4736 0.0272195C40.1054 0.0385523 39.6782 0.236867 39.3226 0.631059L28.9745 12.6572V31.2161L39.7554 18.7136C39.7554 18.7136 41.3226 16.6805 41.3226 14.3012V0.890346C41.3226 0.306756 40.9468 0.012639 40.4736 0.0272195ZM0.960513 17.2893C0.00955157 17.2893 -0.392682 18.4842 0.521694 19.4108C0.521694 19.4108 17.8217 39.5637 21.2964 43.5139C24.771 47.464 27.4286 47.3459 27.4286 47.3459V33.785C27.4286 33.785 20.8575 25.9576 17.1999 21.7149C13.5424 17.4722 8.12947 17.2893 8.12947 17.2893H0.960513ZM48.2736 17.2893C48.2736 17.2893 42.8607 17.4722 39.2032 21.7149C35.5456 25.9576 28.9745 33.785 28.9745 33.785V47.3459C28.9745 47.3459 31.6317 47.464 35.1063 43.5139C38.581 39.5637 55.8814 19.4108 55.8814 19.4108C56.7958 18.4842 56.3936 17.2893 55.4426 17.2893H48.2736ZM202.805 25.8216C202.805 25.8216 200.239 25.8216 198.494 27.8745L192.967 34.1615V41.2179C192.967 41.2179 193.951 41.6029 194.901 40.7305L206.899 26.8872C207.36 26.3781 207.205 25.8216 206.562 25.8216H202.805Z" fill="#E00500"/>
<path d="M63.4619 17.2893L73.6437 47.3459H81.0118L91.1044 17.2893H84.6289L77.3056 40.1578L69.937 17.2893H63.4619ZM93.739 17.2893V47.3459H99.4999V37.3446H105.707C105.707 37.3446 109.46 37.3443 112.583 34.1735C113.997 32.7372 115.04 30.8542 115.04 27.5645C115.04 19.3028 107.002 17.2893 105.216 17.2893H99.4999H94.9894H93.739ZM117.809 17.2893V47.3459H121.605H123.838H130.893C130.893 47.3459 134.949 47.346 137.392 44.7817C138.66 43.4521 139.914 41.5454 139.914 38.5501C139.825 37.7909 139.959 33.37 135.984 31.7624C135.984 31.7624 140.495 28.4618 138.262 22.8757C136.029 17.2896 130 17.2893 130 17.2893H123.838H121.337H117.809ZM187.614 17.2893V47.3459H192.967V17.2893H187.614ZM208.891 17.3387C208.12 17.3388 207.38 17.6454 206.835 18.1909C206.289 18.7365 205.983 19.4764 205.983 20.2479C205.983 21.0195 206.289 21.7594 206.835 22.3049C207.38 22.8505 208.12 23.1571 208.891 23.1571C209.273 23.1572 209.652 23.0819 210.004 22.9357C210.357 22.7895 210.678 22.5752 210.948 22.3051C211.218 22.0349 211.432 21.7142 211.579 21.3613C211.725 21.0083 211.8 20.63 211.8 20.2479C211.8 19.8659 211.725 19.4876 211.579 19.1346C211.432 18.7816 211.218 18.4609 210.948 18.1908C210.678 17.9206 210.357 17.7063 210.004 17.5602C209.652 17.414 209.273 17.3387 208.891 17.3387ZM208.874 17.9959C209.167 17.9959 209.458 18.0537 209.729 18.166C210 18.2783 210.246 18.4429 210.454 18.6504C210.661 18.8579 210.826 19.1042 210.938 19.3753C211.05 19.6464 211.108 19.937 211.108 20.2305C211.108 20.5239 211.05 20.8145 210.938 21.0856C210.826 21.3567 210.661 21.603 210.454 21.8105C210.246 22.018 210 22.1826 209.729 22.2949C209.458 22.4072 209.167 22.465 208.874 22.465C208.281 22.4649 207.713 22.2294 207.294 21.8104C206.875 21.3913 206.64 20.823 206.64 20.2305C206.64 19.6379 206.875 19.0696 207.294 18.6505C207.713 18.2315 208.281 17.996 208.874 17.9959ZM207.737 18.784V21.7887H208.438V20.6663H208.64L209.38 21.7887H210.16L209.37 20.6663C209.37 20.6663 210.076 20.6665 210.064 19.7699C210.051 18.7842 209.103 18.784 209.103 18.784H207.737ZM208.438 19.4373H208.978C208.978 19.4373 209.305 19.4431 209.311 19.74C209.316 20.0369 209.014 20.0373 209.014 20.0373H208.438V19.4373ZM99.4999 22.8757H105.35C105.35 22.8757 109.235 23.0523 109.235 27.4753C109.235 31.8963 105.216 31.8963 105.216 31.8963H99.4999V22.8757ZM123.838 22.8757H129.732C129.732 22.8757 132.769 23.0542 132.769 26.3141C132.769 29.5741 129.643 29.5738 129.643 29.5738H123.838V22.8757ZM177.832 25.1683C174.132 25.1683 172.161 26.8951 171.137 28.4404V25.912H165.879V47.3459H171.137V35.4089C171.137 35.4089 171.229 30.2428 175.998 30.2122C180.766 30.1817 180.277 35.7146 180.277 35.7146V47.3459H185.596V33.5138C185.596 33.5138 185.688 29.5217 182.819 27.0945C181.689 26.1393 180.024 25.1683 177.832 25.1683ZM151.373 25.2292C148.645 25.2293 146.029 26.4274 144.1 28.5601C142.17 30.6927 141.087 33.5852 141.087 36.6012C141.087 39.6172 142.17 42.5097 144.1 44.6424C146.029 46.775 148.645 47.9732 151.373 47.9732C153.967 47.9654 156.461 46.8752 158.358 44.9207V47.3459H163.861V25.912H158.358V28.2817C156.461 26.3273 153.967 25.2371 151.373 25.2292ZM152.428 30.2945C153.256 30.2945 154.076 30.4565 154.841 30.7711C155.607 31.0858 156.302 31.547 156.888 32.1284C157.473 32.7098 157.938 33.4 158.255 34.1596C158.572 34.9192 158.735 35.7334 158.735 36.5556C158.735 38.216 158.07 39.8085 156.887 40.9826C155.705 42.1566 154.101 42.8162 152.428 42.8162C150.755 42.8161 149.151 42.1565 147.969 40.9824C146.786 39.8083 146.122 38.216 146.122 36.5556C146.122 34.8952 146.786 33.3027 147.969 32.1285C149.151 30.9543 150.755 30.2946 152.428 30.2945ZM123.838 34.5756H131.206C131.206 34.5756 133.975 34.5309 133.975 38.1927C133.975 41.8546 130.715 41.8546 130.715 41.8546H123.838V34.5756ZM198.834 37.098C198.705 37.0931 198.564 37.1381 198.417 37.2665L196.646 39.2166C196.646 39.2166 195.621 40.5992 197.364 42.7322L201.136 47.3459H207.244L199.494 37.5744C199.494 37.5744 199.22 37.1125 198.834 37.098Z" fill="#00B74F"/>
</g>
<defs>
<clipPath id="clip0_4538_2789">
<rect width="211.8" height="48" fill="white"/>
</clipPath>
</defs>
</svg>
