<svg width="141" height="48" viewBox="0 0 141 48" fill="none" xmlns="http://www.w3.org/2000/svg">
<g clip-path="url(#clip0_4538_2849)">
<path fill-rule="evenodd" clip-rule="evenodd" d="M113.87 22.5636C114.196 22.8933 114.378 23.3259 114.378 23.7872C114.378 24.2451 114.196 24.6836 113.87 25.0125L105.202 33.4738C104.858 33.8026 104.403 33.9806 103.947 33.9806C103.719 33.9806 103.488 33.9426 103.266 33.8473C102.607 33.5792 102.177 32.9501 102.177 32.251V15.3259C102.177 14.6226 102.607 13.9952 103.266 13.722C103.931 13.4564 104.693 13.6065 105.202 14.099L113.87 22.5636Z" fill="#EE7623"/>
<path fill-rule="evenodd" clip-rule="evenodd" d="M59.7414 4.0629C59.3099 5.1663 58.831 6.76929 58.2761 8.88263L57.8372 10.5452L52.4605 31.9523L46.1955 4.56745C45.661 1.95122 44.2137 0.335818 40.6235 0.335818H2.32655C0.567014 0.335818 0.504903 2.21838 0.5 2.23327V46.6133C0.5 46.6133 0.530238 47.5546 1.43084 47.5546H4.98913C7.54303 47.5546 10.8104 45.8879 10.8104 41.2899V27.7703H24.223C29.3341 27.7703 30.582 24.0755 30.582 21.9721V21.1904C30.582 20.4468 30.3295 19.9927 29.442 19.9927H10.8104V8.79413H37.1519L45.1012 39.7762C45.3448 40.7026 46.7365 45.6034 46.7365 45.6034C47.2702 47.3238 47.213 47.5728 48.6603 47.5728H51.8787C55.8382 47.5728 57.203 45.1038 57.9009 43.3627C58.2515 42.4189 58.5024 42.0062 59.0688 39.8788L66.0783 13.1722L73.4891 39.7456C73.7302 40.6712 75.0231 45.5918 75.0231 45.5918C75.5576 47.3065 75.5036 47.5712 76.9493 47.5712H80.166C84.1256 47.5712 85.4953 45.0997 86.1948 43.3478C86.5381 42.4049 86.8838 41.5033 87.4526 39.3775L94.7391 8.82225H117.306C119.245 8.82225 120.806 8.99264 122.213 9.42441C124.034 9.97693 125.652 11.3574 127.002 13.5196C128.308 15.637 129.057 19.3451 129.089 23.9514C129.087 29.1467 127.552 33.7555 124.703 36.2468C124.068 36.8283 123.322 37.2758 122.439 37.605C121.539 37.9433 120.667 38.155 119.841 38.2369C118.953 38.3337 117.775 38.5148 116.23 38.5264H116.207L111.287 38.5355H104.216C104.203 38.5281 104.188 38.5281 104.181 38.5281C102.653 38.5281 102.6 39.4263 102.6 39.8101V41.6687C102.6 44.3726 104.808 47.4785 109.235 47.4785H109.391L117.979 47.476C120.165 47.4512 122.125 47.2899 123.884 46.9864C125.652 46.6762 127.315 46.1625 128.862 45.4156C130.412 44.6795 131.842 43.7051 133.145 42.5C134.787 40.94 136.131 39.1741 137.179 37.203C138.214 35.2261 138.978 33.0284 139.458 30.6057C139.908 28.3212 140.136 26.6926 140.136 23.982V23.9266C140.06 15.1457 137.494 8.90579 132.385 4.54595C130.427 2.83543 128.219 1.66503 125.795 1.05129C123.534 0.477258 120.873 0.194377 117.828 0.194377H90.4919C88.9898 0.209266 86.7424 0.995046 85.8786 4.56745L79.9453 31.777L73.6403 10.441V10.4567L73.2194 8.88263C72.6114 6.60966 72.1194 4.97689 71.7557 3.99177C71.3904 3.00665 70.7423 2.09349 69.7951 1.25229C68.8602 0.41605 67.5371 0 65.8389 0C64.1529 0 62.833 0.39868 61.8556 1.201C60.8741 2.00415 60.1737 2.95454 59.7414 4.0629Z" fill="#183028"/>
</g>
<defs>
<clipPath id="clip0_4538_2849">
<rect width="139.636" height="48" fill="white" transform="translate(0.5)"/>
</clipPath>
</defs>
</svg>
