<svg width="182" height="48" viewBox="0 0 182 48" fill="none" xmlns="http://www.w3.org/2000/svg">
<path d="M58.8536 28.3954C58.9625 28.1736 59.1454 27.8091 59.2173 27.6246L63.6495 16.786L68.0077 27.7344C68.0807 27.9189 68.2244 28.211 68.3333 28.4679L67.7909 28.5777C66.555 28.9071 65.1752 29.1267 63.7584 29.1267C62.3416 29.1267 61.0338 28.9445 59.6529 28.5777C59.3981 28.5041 59.0366 28.3954 58.8536 28.3954ZM13.7812 11.8778C18.7209 11.8778 22.209 12.9034 24.3881 14.8447C27.0017 17.1506 28.3095 20.1921 28.3095 24C28.3095 27.6246 27.0376 30.6299 24.5318 32.973C22.3527 35.0604 18.7938 36.1585 13.7812 36.1585H12.1836V11.8778H13.7812ZM166.325 14.9918C168.797 17.4086 169.995 20.448 169.995 24C169.995 27.5159 168.759 30.5179 166.325 33.0093C163.893 35.4623 160.951 36.7075 157.501 36.7075C150.563 36.7075 145.043 30.9582 145.043 24C145.043 20.4853 146.277 17.4448 148.711 14.9545C151.108 12.5015 154.087 11.2915 157.501 11.2915C160.915 11.2915 163.857 12.5378 166.325 14.9918ZM107.816 17.1144L112.21 13.3053C108.432 8.21599 103.384 5.68939 97.428 5.68939C87.2928 5.68939 79.1209 13.8554 79.1209 24.0736C79.1209 34.0722 87.2567 42.3106 97.1721 42.3106C99.6778 42.3106 102.075 41.7605 104.4 40.6987C106.653 39.6732 108.613 38.2447 110.213 36.3781C111.737 34.6574 112.719 32.6799 113.299 30.5179C113.772 28.7248 114.062 26.5266 113.915 23.8892L113.843 22.8273H98.0085V28.4316H107.742C107.488 30.6299 106.361 32.5339 104.4 34.1084C102.258 35.8653 99.8227 36.7075 97.1002 36.7075C93.94 36.7075 91.1063 35.3898 88.4927 32.7897C86.1318 30.3719 84.9318 27.4797 84.9318 24.1098C84.9318 20.5578 86.1678 17.4811 88.7095 14.9183C91.1063 12.4642 94.0118 11.2915 97.3528 11.2915C101.639 11.2915 105.017 13.2691 107.816 17.1144ZM70.5854 33.9976L73.8186 41.7606H80.212L65.2112 6.16594H62.3058L46.9052 41.7606H53.2616L56.6396 33.8515C56.7116 33.6319 56.7475 33.4847 56.7845 33.3387C56.9283 33.4123 57.1482 33.4847 57.4009 33.5957C59.2892 34.328 61.5424 34.7299 63.7584 34.7299C65.9364 34.7299 68.0807 34.2907 69.3527 33.8515C70.0049 33.6319 70.2215 33.5232 70.4045 33.4123C70.4416 33.5594 70.5494 33.8888 70.5854 33.9976ZM13.5994 41.7606C20.0647 41.7606 25.0403 40.2968 28.3825 37.2565C32.195 33.8141 34.1203 29.4198 34.1203 24.0363C34.1203 18.433 32.1591 13.9301 28.2376 10.5602C24.9325 7.70316 20.0288 6.27469 13.6724 6.27469H6.15384V41.7606H13.5994ZM44.6171 6.27469H38.8433V41.7606H44.6171V6.27469ZM123.468 25.2078H135.781V19.642H123.468V11.8778H136.87V6.27469H117.693V41.7606H136.906V36.1585H123.468V25.2078ZM144.608 11.0731C141.011 14.6251 139.233 18.9821 139.233 24.0363C139.233 34.2545 147.404 42.3106 157.501 42.3106C167.634 42.3106 175.769 34.2907 175.769 24.0363C175.769 19.0194 173.953 14.7338 170.431 11.1092C166.87 7.48358 162.549 5.68939 157.501 5.68939C152.488 5.68939 148.166 7.48359 144.608 11.0731Z" fill="#BE2255"/>
</svg>
