<svg width="192" height="35" viewBox="0 0 192 35" fill="none" xmlns="http://www.w3.org/2000/svg">
<g clip-path="url(#clip0_4538_2994)">
<path d="M104.455 32.4022H129.232V29.3758H108.703V19.6918H124.122V16.6296H108.703V7.70762H129.232V4.69226H104.455V32.4022Z" fill="black"/>
<path d="M117.331 0.212891L113.976 3.98137L124.507 0.212891H117.331Z" fill="black"/>
<path d="M170.826 29.3758V4.69226H166.953V32.4022H192V29.3758H170.826Z" fill="black"/>
<path d="M145.286 4.69226L131.197 32.4022H135.959L139.564 25.23H156.462L160.097 32.4022H164.811L150.71 4.69226H145.286ZM141.347 21.7567L147.986 8.52122L154.704 21.7567H141.347Z" fill="black"/>
<path d="M91.0104 20.8152C97.3587 19.1213 97.9755 14.3979 97.9433 12.7092C97.5644 7.75898 94.2291 4.69226 88.236 4.69226H70.7712V32.4022H74.7526V20.7783H86.1226L94.4873 32.4022H99.5055C99.5055 32.4022 93.4858 24.5791 91.0104 20.8152ZM87.6924 17.5042H74.7526V7.9721H88.1434C91.2264 7.9721 92.9607 9.41138 93.5854 11.2397C93.9987 12.493 93.7337 14.1382 93.05 15.2583C91.9308 17.1101 89.8049 17.5042 87.6924 17.5042Z" fill="black"/>
<path d="M46.8451 0C35.6064 0 27.9463 7.92408 27.9463 17.515C27.9463 27.6118 36.408 34.7395 46.8451 34.7395C57.2752 34.7395 65.7336 27.7135 65.7336 17.515C65.7336 7.92408 57.9787 0 46.8451 0ZM46.7102 31.2998C38.9347 31.2998 32.5281 25.0514 32.5281 17.5243C32.5281 10.0075 38.6323 3.45984 47.0116 3.45984C55.1834 3.45984 61.1904 10.0075 61.1904 17.5243C61.1904 25.0512 54.4824 31.2998 46.7102 31.2998Z" fill="black"/>
<path d="M17.9192 14.4951H20.792L26.0065 4.69226H21.8103L17.9192 14.4951Z" fill="black"/>
<path d="M3.8748 29.3758V4.69226H0V32.4022H25.0462V29.3758H3.8748Z" fill="black"/>
</g>
<defs>
<clipPath id="clip0_4538_2994">
<rect width="192" height="34.7395" fill="white"/>
</clipPath>
</defs>
</svg>
