<svg width="1414" height="483" viewBox="0 0 1414 483" fill="none" xmlns="http://www.w3.org/2000/svg">
<rect x="142.054" y="449" width="124" height="28" rx="14" transform="rotate(-90 142.054 449)" fill="url(#paint0_linear_4427_155488)"/>
<path d="M161.054 436.545L161.054 439.996L150.872 439.996L150.872 436.476C150.872 435.465 151.076 434.597 151.484 433.871C151.888 433.142 152.47 432.581 153.229 432.19C153.988 431.799 154.896 431.604 155.953 431.604C157.014 431.604 157.925 431.801 158.687 432.195C159.45 432.586 160.035 433.152 160.442 433.891C160.85 434.626 161.054 435.511 161.054 436.545ZM159.458 438.151L159.458 436.635C159.458 435.926 159.329 435.334 159.07 434.86C158.808 434.386 158.419 434.03 157.902 433.791C157.382 433.553 156.732 433.433 155.953 433.433C155.174 433.433 154.528 433.553 154.014 433.791C153.497 434.03 153.111 434.383 152.856 434.85C152.597 435.314 152.468 435.891 152.468 436.58L152.468 438.151L159.458 438.151ZM155.963 420.753C157.06 420.753 158 420.959 158.782 421.37C159.561 421.777 160.157 422.334 160.572 423.04C160.986 423.743 161.193 424.54 161.193 425.431C161.193 426.323 160.986 427.122 160.572 427.828C160.154 428.53 159.556 429.087 158.777 429.498C157.995 429.906 157.057 430.11 155.963 430.11C154.866 430.11 153.928 429.906 153.149 429.498C152.367 429.087 151.769 428.53 151.354 427.828C150.94 427.122 150.733 426.323 150.733 425.431C150.733 424.54 150.94 423.743 151.354 423.04C151.769 422.334 152.367 421.777 153.149 421.37C153.928 420.959 154.866 420.753 155.963 420.753ZM155.963 422.608C155.191 422.608 154.54 422.729 154.009 422.971C153.476 423.209 153.073 423.541 152.801 423.965C152.526 424.389 152.388 424.878 152.388 425.431C152.388 425.985 152.526 426.474 152.801 426.898C153.073 427.322 153.476 427.655 154.009 427.897C154.54 428.136 155.191 428.255 155.963 428.255C156.735 428.255 157.388 428.136 157.922 427.897C158.452 427.655 158.855 427.322 159.13 426.898C159.402 426.474 159.538 425.985 159.538 425.431C159.538 424.878 159.402 424.389 159.13 423.965C158.855 423.541 158.452 423.209 157.922 422.971C157.388 422.729 156.735 422.608 155.963 422.608ZM161.054 418.249L161.054 420.218L150.872 416.633L150.872 414.356L161.054 410.767L161.054 412.735L152.96 415.455L152.96 415.534L161.054 418.249ZM157.062 418.184L157.062 412.815L158.543 412.815L158.543 418.184L157.062 418.184ZM150.872 401.058L161.054 401.058L161.054 402.699L154.119 407.496L154.119 407.581L161.054 407.581L161.054 409.425L150.872 409.425L150.872 407.775L157.812 402.982L157.812 402.893L150.872 402.893L150.872 401.058ZM161.054 399.048L150.872 399.048L150.872 397.204L155.183 397.204L155.183 392.486L150.872 392.486L150.872 390.637L161.054 390.637L161.054 392.486L156.729 392.486L156.729 397.204L161.054 397.204L161.054 399.048ZM150.872 376.791L161.054 376.791L161.054 378.431L154.119 383.229L154.119 383.313L161.054 383.313L161.054 385.158L150.872 385.158L150.872 383.507L157.812 378.715L157.812 378.625L150.872 378.625L150.872 376.791ZM154.124 367.96C153.855 368.043 153.615 368.157 153.403 368.303C153.187 368.445 153.003 368.618 152.851 368.82C152.698 369.019 152.584 369.248 152.508 369.506C152.428 369.765 152.388 370.046 152.388 370.351C152.388 370.898 152.526 371.385 152.801 371.813C153.076 372.24 153.481 372.577 154.014 372.822C154.544 373.064 155.191 373.185 155.953 373.185C156.722 373.185 157.373 373.064 157.907 372.822C158.441 372.58 158.847 372.244 159.125 371.813C159.4 371.382 159.538 370.882 159.538 370.311C159.538 369.794 159.438 369.347 159.239 368.969C159.04 368.588 158.759 368.295 158.394 368.089C158.026 367.884 157.595 367.781 157.102 367.781L157.166 367.363L157.166 370.127L155.724 370.127L155.724 365.996L156.947 365.996C157.819 365.996 158.573 366.182 159.209 366.553C159.846 366.924 160.336 367.435 160.681 368.084C161.022 368.734 161.193 369.48 161.193 370.321C161.193 371.259 160.983 372.083 160.562 372.792C160.138 373.498 159.536 374.05 158.757 374.448C157.975 374.842 157.047 375.039 155.973 375.039C155.151 375.039 154.417 374.923 153.771 374.691C153.124 374.456 152.576 374.128 152.125 373.707C151.671 373.286 151.326 372.792 151.091 372.225C150.852 371.659 150.733 371.042 150.733 370.376C150.733 369.813 150.816 369.287 150.982 368.8C151.144 368.313 151.376 367.88 151.678 367.502C151.979 367.121 152.337 366.808 152.751 366.563C153.166 366.318 153.623 366.157 154.124 366.081L154.124 367.96ZM161.054 364.213L150.872 364.213L150.872 362.368L155.182 362.368L155.182 357.65L150.872 357.65L150.872 355.801L161.054 355.801L161.054 357.65L156.729 357.65L156.729 362.368L161.054 362.368L161.054 364.213ZM150.872 351.95L161.054 351.95L161.054 353.795L150.872 353.795L150.872 351.95ZM161.054 349.953L150.872 349.953L150.872 343.331L152.418 343.331L152.418 348.108L155.182 348.108L155.182 343.674L156.729 343.674L156.729 348.108L159.508 348.108L159.508 343.291L161.054 343.291L161.054 349.953ZM149.957 345.627L148.685 346.637L149.957 347.646L149.957 349.222L149.888 349.222L147.74 347.338L147.74 345.931L149.888 344.051L149.957 344.051L149.957 345.627ZM163.803 346.696C163.803 346.985 163.707 347.232 163.515 347.437C163.323 347.639 163.092 347.74 162.824 347.74C162.555 347.74 162.325 347.639 162.133 347.437C161.941 347.232 161.844 346.986 161.844 346.701C161.844 346.413 161.941 346.168 162.133 345.966C162.325 345.76 162.555 345.657 162.824 345.657C163.092 345.657 163.323 345.76 163.515 345.966C163.707 346.168 163.803 346.411 163.803 346.696ZM161.054 341.449L150.872 341.449L150.872 337.631C150.872 336.848 151.018 336.192 151.31 335.662C151.601 335.128 152.002 334.726 152.513 334.454C153.02 334.179 153.597 334.041 154.243 334.041C154.896 334.041 155.476 334.179 155.983 334.454C156.49 334.729 156.889 335.135 157.181 335.672C157.469 336.209 157.614 336.87 157.614 337.656L157.614 340.186L156.097 340.186L156.097 337.904C156.097 337.447 156.018 337.072 155.859 336.781C155.7 336.489 155.481 336.273 155.202 336.134C154.924 335.992 154.604 335.92 154.243 335.92C153.882 335.92 153.563 335.992 153.288 336.134C153.013 336.273 152.799 336.491 152.647 336.786C152.491 337.077 152.413 337.453 152.413 337.914L152.413 339.604L161.054 339.604L161.054 341.449Z" fill="#FBFBFF"/>
<rect y="102" width="89" height="28" rx="14" transform="rotate(-90 0 102)" fill="url(#paint1_linear_4427_155488)"/>
<path d="M10.3643 93.4432L8.81818 93.4432L8.81818 85.3196L10.3643 85.3196L10.3643 88.4666L19 88.4666L19 90.2962L10.3643 90.2962L10.3643 93.4432ZM19 83.7536L8.81818 83.7536L8.81818 81.9091L13.1286 81.9091L13.1286 77.1911L8.81818 77.1911L8.81818 75.3416L19 75.3416L19 77.191L14.6747 77.1911L14.6747 81.9091L19 81.9091L19 83.7536ZM8.81818 66.9173L8.81818 65.0728L15.4702 65.0728C16.1993 65.0728 16.8407 65.2451 17.3942 65.5898C17.9477 65.9312 18.3802 66.4118 18.6918 67.0316C19 67.6514 19.1541 68.3756 19.1541 69.2042C19.1541 70.0361 19 70.762 18.6918 71.3817C18.3802 72.0015 17.9477 72.4821 17.3942 72.8235C16.8407 73.1649 16.1993 73.3356 15.4702 73.3356L8.81818 73.3356L8.81818 71.4911L15.316 71.4911C15.7403 71.4911 16.1181 71.3983 16.4496 71.2127C16.781 71.0238 17.0412 70.7586 17.2301 70.4173C17.4157 70.0759 17.5085 69.6715 17.5085 69.2042C17.5085 68.7369 17.4157 68.3325 17.2301 67.9911C17.0412 67.6464 16.781 67.3813 16.4496 67.1957C16.1181 67.0101 15.7403 66.9173 15.316 66.9173L8.81818 66.9173ZM7.81392 69.8952L5.5419 68.7816L5.5419 67.0217L7.81392 68.5479L7.81392 69.8952ZM12.2535 54.3528L12.2535 56.2122C11.9486 56.2652 11.6785 56.363 11.4432 56.5055C11.2045 56.648 11.0024 56.8253 10.8366 57.0375C10.6709 57.2496 10.5466 57.4915 10.4638 57.7633C10.3776 58.0318 10.3345 58.3218 10.3345 58.6333C10.3345 59.1868 10.4737 59.6774 10.7521 60.1049C11.0272 60.5325 11.4316 60.8672 11.9652 61.1092C12.4955 61.3511 13.1435 61.4721 13.9091 61.4721C14.688 61.4721 15.3442 61.3511 15.8778 61.1092C16.4081 60.8639 16.8092 60.5292 17.081 60.1049C17.3494 59.6774 17.4837 59.1885 17.4837 58.6383C17.4837 58.3334 17.4439 58.0484 17.3643 57.7832C17.2815 57.5147 17.1605 57.2744 17.0014 57.0623C16.8423 56.8469 16.6468 56.6663 16.4148 56.5204C16.1828 56.3713 15.9176 56.2685 15.6193 56.2122L15.6293 54.3528C16.1132 54.4224 16.5672 54.5732 16.9915 54.8052C17.4157 55.0339 17.7902 55.3339 18.1151 55.7051C18.4366 56.0763 18.6884 56.5105 18.8707 57.0076C19.0497 57.5048 19.1392 58.0566 19.1392 58.6632C19.1392 59.5581 18.9321 60.3568 18.5178 61.0595C18.1035 61.7621 17.5052 62.3156 16.723 62.72C15.9408 63.1243 15.0028 63.3265 13.9091 63.3265C12.812 63.3265 11.8741 63.1227 11.0952 62.715C10.313 62.3074 9.71472 61.7522 9.30042 61.0495C8.88612 60.3469 8.67898 59.5514 8.67898 58.6632C8.67898 58.0964 8.75852 57.5694 8.91761 57.0822C9.0767 56.595 9.31037 56.1608 9.61861 55.7797C9.92353 55.3985 10.2981 55.0853 10.7422 54.84C11.183 54.5914 11.6868 54.429 12.2535 54.3528ZM19 45.7408L19 48.321L17.4041 48.321L17.4041 45.8303C17.4041 45.121 17.2749 44.5294 17.0163 44.0554C16.7545 43.5814 16.3651 43.2251 15.848 42.9865C15.3276 42.7479 14.678 42.6286 13.8991 42.6286C13.1203 42.6286 12.474 42.7479 11.9602 42.9865C11.4432 43.2251 11.0571 43.5781 10.8018 44.0455C10.5433 44.5095 10.4141 45.0862 10.4141 45.7756L10.4141 48.3757L8.81818 48.3757L8.81818 45.6712C8.81818 44.6603 9.02201 43.7919 9.42969 43.0661C9.83404 42.3369 10.4157 41.7768 11.1747 41.3857C11.9337 40.9946 12.8419 40.799 13.8991 40.799C14.9598 40.799 15.8712 40.9962 16.6335 41.3906C17.3958 41.7817 17.9808 42.3468 18.3885 43.0859C18.7962 43.8217 19 44.7067 19 45.7408ZM8.81818 47.3466L19 47.3466L19 49.1911L8.81818 49.1911L8.81818 47.3466ZM14.2372 50.6626L13.1037 50.6626L13.1037 45.8949L14.2372 45.8949L14.2372 50.6626ZM19 37.739L19 39.7077L8.81818 36.1232L8.81818 33.8462L19 30.2567L19 32.2255L10.9062 34.945L10.9062 35.0245L19 37.739ZM15.0078 37.6744L15.0078 32.305L16.4893 32.305L16.4893 37.6744L15.0078 37.6744ZM6.39204 34.3633L8.0277 32.4244L8.0277 33.8114L7.02841 34.9947L8.0277 36.1829L8.0277 37.57L6.39204 35.631L6.39204 34.3633ZM7.12784 32.0614L7.12784 33.0707L6.32244 33.1353C6.30587 32.8536 6.26941 32.6481 6.21306 32.5188C6.15341 32.3862 6.06226 32.32 5.93963 32.32C5.78385 32.32 5.67779 32.4028 5.62145 32.5685C5.56179 32.7343 5.53196 32.9447 5.53196 33.1999L4.78125 33.1502C4.78125 32.5006 4.88068 32.0084 5.07954 31.6737C5.27841 31.3356 5.55184 31.1665 5.89986 31.1665C6.16832 31.1665 6.36884 31.2594 6.50142 31.445C6.63399 31.6306 6.71685 31.8361 6.75 32.0614L7.12784 32.0614ZM8.81818 30.6507L8.81818 28.5676L13.3224 26.0769L13.3224 25.9774L8.81818 23.4867L8.81818 21.4036L15.2017 25.1074L19 25.1074L19 26.9469L15.2017 26.9469L8.81818 30.6507Z" fill="#FBFBFF"/>
<rect x="1385.51" y="483" width="87" height="28" rx="14" transform="rotate(-90 1385.51 483)" fill="url(#paint2_linear_4427_155488)"/>
<path d="M1397.58 467.175C1397.31 467.258 1397.07 467.372 1396.86 467.518C1396.65 467.66 1396.46 467.833 1396.31 468.035C1396.16 468.234 1396.04 468.462 1395.97 468.721C1395.89 468.979 1395.85 469.261 1395.85 469.566C1395.85 470.113 1395.99 470.6 1396.26 471.028C1396.54 471.455 1396.94 471.792 1397.47 472.037C1398 472.279 1398.65 472.4 1399.41 472.4C1400.18 472.4 1400.83 472.279 1401.37 472.037C1401.9 471.795 1402.31 471.459 1402.58 471.028C1402.86 470.597 1403 470.096 1403 469.526C1403 469.009 1402.9 468.562 1402.7 468.184C1402.5 467.803 1402.22 467.509 1401.85 467.304C1401.49 467.098 1401.06 466.996 1400.56 466.996L1400.63 466.578L1400.63 469.342L1399.18 469.342L1399.18 465.211L1400.41 465.211C1401.28 465.211 1402.03 465.397 1402.67 465.768C1403.31 466.139 1403.8 466.649 1404.14 467.299C1404.48 467.949 1404.65 468.694 1404.65 469.536C1404.65 470.474 1404.44 471.298 1404.02 472.007C1403.6 472.713 1403 473.265 1402.22 473.663C1401.43 474.057 1400.51 474.254 1399.43 474.254C1398.61 474.254 1397.88 474.138 1397.23 473.906C1396.58 473.671 1396.04 473.343 1395.58 472.922C1395.13 472.501 1394.79 472.007 1394.55 471.44C1394.31 470.874 1394.19 470.257 1394.19 469.591C1394.19 469.027 1394.28 468.502 1394.44 468.015C1394.6 467.528 1394.84 467.095 1395.14 466.717C1395.44 466.336 1395.8 466.023 1396.21 465.778C1396.63 465.532 1397.08 465.372 1397.58 465.295L1397.58 467.175ZM1394.33 461.583L1404.51 461.583L1404.51 463.427L1394.33 463.427L1394.33 461.583ZM1404.51 458.278L1404.51 460.247L1394.33 456.662L1394.33 454.385L1404.51 450.796L1404.51 452.765L1396.42 455.484L1396.42 455.564L1404.51 458.278ZM1400.52 458.213L1400.52 452.844L1402 452.844L1402 458.213L1400.52 458.213ZM1393.26 454.833L1393.26 456.205L1392.3 456.275C1392.29 455.923 1392.25 455.675 1392.17 455.529C1392.09 455.383 1391.98 455.312 1391.84 455.315C1391.66 455.312 1391.54 455.408 1391.47 455.603C1391.4 455.799 1391.36 456.041 1391.36 456.329L1390.47 456.284C1390.47 455.462 1390.59 454.839 1390.83 454.415C1391.07 453.991 1391.4 453.78 1391.81 453.784C1392.12 453.78 1392.36 453.888 1392.51 454.107C1392.66 454.326 1392.76 454.568 1392.8 454.833L1393.26 454.833ZM1394.33 447.61L1404.51 447.61L1404.51 449.455L1394.33 449.455L1394.33 447.61ZM1404.51 442.14L1394.33 442.14L1394.33 438.322C1394.33 437.54 1394.48 436.884 1394.77 436.353C1395.06 435.82 1395.46 435.417 1395.97 435.145C1396.48 434.87 1397.06 434.733 1397.7 434.733C1398.36 434.733 1398.94 434.87 1399.44 435.145C1399.95 435.42 1400.35 435.826 1400.64 436.363C1400.93 436.9 1401.07 437.561 1401.07 438.347L1401.07 440.877L1399.56 440.877L1399.56 438.596C1399.56 438.138 1399.48 437.764 1399.32 437.472C1399.16 437.18 1398.94 436.965 1398.66 436.826C1398.38 436.683 1398.06 436.612 1397.7 436.612C1397.34 436.612 1397.02 436.683 1396.75 436.826C1396.47 436.965 1396.26 437.182 1396.11 437.477C1395.95 437.769 1395.87 438.145 1395.87 438.605L1395.87 440.296L1404.51 440.296L1404.51 442.14ZM1404.51 433.131L1394.33 433.131L1394.33 431.286L1398.64 431.286L1398.64 426.568L1394.33 426.568L1394.33 424.719L1404.51 424.719L1404.51 426.568L1400.19 426.568L1400.19 431.286L1404.51 431.286L1404.51 433.131ZM1404.51 421.405L1404.51 423.374L1394.33 419.789L1394.33 417.512L1404.51 413.923L1404.51 415.892L1396.42 418.611L1396.42 418.691L1404.51 421.405ZM1400.52 421.34L1400.52 415.971L1402 415.971L1402 421.34L1400.52 421.34ZM1393.33 419.342L1391.06 418.228L1391.06 416.468L1393.33 417.994L1393.33 419.342ZM1404.51 412.582L1394.33 412.582L1394.33 408.763C1394.33 407.981 1394.48 407.325 1394.77 406.795C1395.06 406.261 1395.46 405.858 1395.97 405.587C1396.48 405.312 1397.06 405.174 1397.7 405.174C1398.36 405.174 1398.94 405.312 1399.44 405.587C1399.95 405.862 1400.35 406.268 1400.64 406.805C1400.93 407.342 1401.07 408.003 1401.07 408.788L1401.07 411.319L1399.56 411.319L1399.56 409.037C1399.56 408.58 1399.48 408.205 1399.32 407.913C1399.16 407.622 1398.94 407.406 1398.66 407.267C1398.38 407.125 1398.06 407.053 1397.7 407.053C1397.34 407.053 1397.02 407.125 1396.75 407.267C1396.47 407.406 1396.26 407.623 1396.11 407.918C1395.95 408.21 1395.87 408.586 1395.87 409.047L1395.87 410.737L1404.51 410.737L1404.51 412.582Z" fill="#FBFBFF"/>
<rect x="846.487" y="304" width="133" height="28" rx="14" transform="rotate(-90 846.487 304)" fill="url(#paint3_linear_4427_155488)"/>
<path d="M858.74 286.281L858.74 288.14C858.435 288.193 858.165 288.291 857.93 288.433C857.691 288.576 857.489 288.753 857.323 288.965C857.157 289.177 857.033 289.419 856.95 289.691C856.864 289.96 856.821 290.25 856.821 290.561C856.821 291.115 856.96 291.605 857.239 292.033C857.514 292.46 857.918 292.795 858.452 293.037C858.982 293.279 859.63 293.4 860.396 293.4C861.175 293.4 861.831 293.279 862.364 293.037C862.895 292.792 863.296 292.457 863.568 292.033C863.836 291.605 863.97 291.116 863.97 290.566C863.97 290.261 863.93 289.976 863.851 289.711C863.768 289.442 863.647 289.202 863.488 288.99C863.329 288.775 863.133 288.594 862.901 288.448C862.669 288.299 862.404 288.196 862.106 288.14L862.116 286.281C862.6 286.35 863.054 286.501 863.478 286.733C863.902 286.962 864.277 287.262 864.602 287.633C864.923 288.004 865.175 288.438 865.357 288.935C865.536 289.433 865.626 289.984 865.626 290.591C865.626 291.486 865.419 292.285 865.004 292.987C864.59 293.69 863.992 294.243 863.21 294.648C862.427 295.052 861.489 295.254 860.396 295.254C859.299 295.254 858.361 295.05 857.582 294.643C856.8 294.235 856.201 293.68 855.787 292.977C855.373 292.275 855.166 291.479 855.166 290.591C855.166 290.024 855.245 289.497 855.404 289.01C855.563 288.523 855.797 288.089 856.105 287.707C856.41 287.326 856.785 287.013 857.229 286.768C857.67 286.519 858.173 286.357 858.74 286.281ZM865.487 284.591L855.305 284.591L855.305 282.747L859.615 282.747L859.615 278.029L855.305 278.029L855.305 276.18L865.487 276.18L865.487 278.029L861.161 278.029L861.161 282.747L865.487 282.747L865.487 284.591ZM855.305 267.755L855.305 265.911L861.957 265.911C862.686 265.911 863.327 266.083 863.881 266.428C864.434 266.769 864.867 267.25 865.178 267.869C865.487 268.489 865.641 269.213 865.641 270.042C865.641 270.874 865.487 271.6 865.178 272.22C864.867 272.839 864.434 273.32 863.881 273.661C863.327 274.003 862.686 274.173 861.957 274.173L855.305 274.173L855.305 272.329L861.803 272.329C862.227 272.329 862.605 272.236 862.936 272.051C863.268 271.862 863.528 271.597 863.717 271.255C863.902 270.914 863.995 270.509 863.995 270.042C863.995 269.575 863.902 269.17 863.717 268.829C863.528 268.484 863.268 268.219 862.936 268.034C862.605 267.848 862.227 267.755 861.803 267.755L855.305 267.755ZM855.305 264.602L855.305 262.519L859.809 260.028L859.809 259.929L855.305 257.438L855.305 255.355L861.688 259.059L865.487 259.059L865.487 260.898L861.688 260.898L855.305 264.602ZM865.487 254.048L855.305 254.048L855.305 247.426L856.851 247.426L856.851 252.204L859.615 252.204L859.615 247.769L861.161 247.769L861.161 252.204L863.94 252.204L863.94 247.387L865.487 247.387L865.487 254.048ZM854.39 249.723L853.117 250.732L854.39 251.742L854.39 253.318L854.32 253.318L852.173 251.433L852.173 250.026L854.32 248.147L854.39 248.147L854.39 249.723ZM855.305 237.177L865.487 237.177L865.487 238.818L858.551 243.616L858.551 243.7L865.487 243.7L865.487 245.545L855.305 245.545L855.305 243.894L862.245 239.101L862.245 239.012L855.305 239.012L855.305 237.177ZM855.305 223.328L865.487 223.328L865.487 224.968L858.551 229.766L858.551 229.85L865.487 229.85L865.487 231.695L855.305 231.695L855.305 230.044L862.245 225.252L862.245 225.162L855.305 225.162L855.305 223.328ZM858.556 214.497C858.288 214.58 858.047 214.694 857.835 214.84C857.62 214.983 857.436 215.155 857.283 215.357C857.131 215.556 857.017 215.785 856.94 216.043C856.861 216.302 856.821 216.583 856.821 216.888C856.821 217.435 856.959 217.922 857.234 218.35C857.509 218.778 857.913 219.114 858.447 219.359C858.977 219.601 859.623 219.722 860.386 219.722C861.155 219.722 861.806 219.601 862.34 219.359C862.873 219.117 863.279 218.781 863.558 218.35C863.833 217.919 863.97 217.419 863.97 216.849C863.97 216.331 863.871 215.884 863.672 215.506C863.473 215.125 863.191 214.832 862.827 214.626C862.459 214.421 862.028 214.318 861.534 214.318L861.599 213.9L861.599 216.665L860.157 216.665L860.157 212.533L861.38 212.533C862.252 212.533 863.006 212.719 863.642 213.09C864.278 213.461 864.769 213.972 865.114 214.621C865.455 215.271 865.626 216.017 865.626 216.858C865.626 217.796 865.415 218.62 864.994 219.329C864.57 220.035 863.969 220.587 863.19 220.985C862.407 221.379 861.479 221.577 860.406 221.577C859.584 221.577 858.849 221.461 858.203 221.229C857.557 220.993 857.008 220.665 856.558 220.244C856.104 219.823 855.759 219.329 855.523 218.763C855.285 218.196 855.166 217.579 855.166 216.913C855.166 216.35 855.248 215.824 855.414 215.337C855.577 214.85 855.809 214.417 856.11 214.04C856.412 213.658 856.77 213.345 857.184 213.1C857.598 212.855 858.056 212.694 858.556 212.618L858.556 214.497ZM865.487 210.75L855.305 210.75L855.305 208.905L859.615 208.905L859.615 204.187L855.305 204.187L855.305 202.338L865.487 202.338L865.487 204.187L861.161 204.187L861.161 208.905L865.487 208.905L865.487 210.75ZM855.305 198.487L865.487 198.487L865.487 200.332L855.305 200.332L855.305 198.487ZM865.487 196.49L855.305 196.49L855.305 189.868L856.851 189.868L856.851 194.645L859.615 194.645L859.615 190.211L861.161 190.211L861.161 194.645L863.94 194.645L863.94 189.828L865.487 189.828L865.487 196.49ZM854.39 192.165L853.117 193.174L854.39 194.183L854.39 195.759L854.32 195.759L852.173 193.875L852.173 192.468L854.32 190.589L854.39 190.589L854.39 192.165ZM868.236 193.233C868.236 193.522 868.14 193.769 867.948 193.974C867.755 194.176 867.525 194.278 867.256 194.278C866.988 194.278 866.758 194.176 866.565 193.974C866.373 193.769 866.277 193.523 866.277 193.238C866.277 192.95 866.373 192.705 866.565 192.503C866.758 192.297 866.988 192.194 867.256 192.194C867.525 192.194 867.755 192.297 867.948 192.503C868.14 192.705 868.236 192.948 868.236 193.233ZM865.487 187.986L855.305 187.986L855.305 184.168C855.305 183.386 855.451 182.729 855.742 182.199C856.034 181.665 856.435 181.263 856.945 180.991C857.452 180.716 858.029 180.578 858.675 180.578C859.328 180.578 859.908 180.716 860.416 180.991C860.923 181.266 861.322 181.672 861.614 182.209C861.902 182.746 862.046 183.407 862.046 184.193L862.046 186.723L860.53 186.723L860.53 184.441C860.53 183.984 860.45 183.609 860.291 183.318C860.132 183.026 859.913 182.811 859.635 182.671C859.357 182.529 859.037 182.458 858.675 182.458C858.314 182.458 857.996 182.529 857.721 182.671C857.446 182.811 857.232 183.028 857.08 183.323C856.924 183.614 856.846 183.99 856.846 184.451L856.846 186.142L865.487 186.142L865.487 187.986Z" fill="#FBFBFF"/>
<rect x="1358.27" y="87" width="87" height="28" rx="14" transform="rotate(-90 1358.27 87)" fill="url(#paint4_linear_4427_155488)"/>
<path d="M1370.34 71.1747C1370.07 71.2576 1369.83 71.3719 1369.62 71.5178C1369.4 71.6603 1369.22 71.8326 1369.07 72.0348C1368.91 72.2337 1368.8 72.4624 1368.72 72.7209C1368.64 72.9794 1368.6 73.2611 1368.6 73.5661C1368.6 74.1129 1368.74 74.6001 1369.02 75.0277C1369.29 75.4553 1369.7 75.7917 1370.23 76.0369C1370.76 76.2789 1371.41 76.3999 1372.17 76.3999C1372.94 76.3999 1373.59 76.2789 1374.12 76.0369C1374.66 75.795 1375.06 75.4586 1375.34 75.0277C1375.62 74.5968 1375.75 74.0964 1375.75 73.5263C1375.75 73.0092 1375.65 72.5618 1375.46 72.1839C1375.26 71.8028 1374.98 71.5095 1374.61 71.304C1374.24 71.0985 1373.81 70.9957 1373.32 70.9957L1373.38 70.5781L1373.38 73.3423L1371.94 73.3423L1371.94 69.2109L1373.16 69.2109C1374.04 69.2109 1374.79 69.3965 1375.43 69.7678C1376.06 70.139 1376.55 70.6494 1376.9 71.299C1377.24 71.9486 1377.41 72.6944 1377.41 73.5362C1377.41 74.4742 1377.2 75.2978 1376.78 76.0071C1376.35 76.7131 1375.75 77.2649 1374.97 77.6626C1374.19 78.0571 1373.26 78.2543 1372.19 78.2543C1371.37 78.2543 1370.63 78.1383 1369.99 77.9062C1369.34 77.6709 1368.79 77.3428 1368.34 76.9219C1367.89 76.5009 1367.54 76.0071 1367.31 75.4403C1367.07 74.8736 1366.95 74.2571 1366.95 73.5909C1366.95 73.0275 1367.03 72.5021 1367.2 72.0149C1367.36 71.5277 1367.59 71.0952 1367.89 70.7173C1368.2 70.3362 1368.55 70.023 1368.97 69.7777C1369.38 69.5324 1369.84 69.3717 1370.34 69.2955L1370.34 71.1747ZM1367.09 65.5829L1377.27 65.5829L1377.27 67.4274L1367.09 67.4274L1367.09 65.5829ZM1377.27 62.2781L1377.27 64.2468L1367.09 60.6623L1367.09 58.3853L1377.27 54.7958L1377.27 56.7646L1369.18 59.484L1369.18 59.5636L1377.27 62.2781ZM1373.28 62.2134L1373.28 56.8441L1374.76 56.8441L1374.76 62.2134L1373.28 62.2134ZM1366.01 58.8327L1366.01 60.2049L1365.06 60.2745C1365.05 59.9232 1365 59.6746 1364.93 59.5288C1364.85 59.3829 1364.74 59.3117 1364.6 59.315C1364.42 59.3117 1364.29 59.4078 1364.22 59.6033C1364.16 59.7989 1364.12 60.0408 1364.12 60.3292L1363.23 60.2844C1363.23 59.4625 1363.35 58.8394 1363.59 58.4151C1363.83 57.9909 1364.15 57.7804 1364.56 57.7837C1364.88 57.7804 1365.11 57.8881 1365.27 58.1069C1365.42 58.3256 1365.52 58.5676 1365.56 58.8327L1366.01 58.8327ZM1367.09 51.6103L1377.27 51.6103L1377.27 53.4547L1367.09 53.4547L1367.09 51.6103ZM1377.27 46.1403L1367.09 46.1403L1367.09 42.3221C1367.09 41.5399 1367.23 40.8836 1367.53 40.3533C1367.82 39.8197 1368.22 39.417 1368.73 39.1452C1369.24 38.8701 1369.81 38.7326 1370.46 38.7326C1371.11 38.7326 1371.69 38.8701 1372.2 39.1452C1372.71 39.4203 1373.11 39.8263 1373.4 40.3633C1373.69 40.9002 1373.83 41.5614 1373.83 42.3469L1373.83 44.8775L1372.31 44.8775L1372.31 42.5955C1372.31 42.1381 1372.23 41.7636 1372.07 41.4719C1371.92 41.1803 1371.7 40.9648 1371.42 40.8256C1371.14 40.6831 1370.82 40.6119 1370.46 40.6119C1370.1 40.6119 1369.78 40.6831 1369.5 40.8256C1369.23 40.9648 1369.02 41.1819 1368.86 41.4769C1368.71 41.7686 1368.63 42.1448 1368.63 42.6055L1368.63 44.2958L1377.27 44.2958L1377.27 46.1403ZM1377.27 37.1305L1367.09 37.1305L1367.09 35.286L1371.4 35.286L1371.4 30.568L1367.09 30.568L1367.09 28.7186L1377.27 28.7186L1377.27 30.568L1372.94 30.568L1372.94 35.286L1377.27 35.286L1377.27 37.1305ZM1377.27 25.405L1377.27 27.3738L1367.09 23.7892L1367.09 21.5123L1377.27 17.9228L1377.27 19.8915L1369.18 22.611L1369.18 22.6905L1377.27 25.405ZM1373.28 25.3404L1373.28 19.9711L1374.76 19.9711L1374.76 25.3404L1373.28 25.3404ZM1366.08 23.3418L1363.81 22.2282L1363.81 20.4682L1366.08 21.9945L1366.08 23.3418ZM1377.27 16.5817L1367.09 16.5817L1367.09 12.7635C1367.09 11.9813 1367.23 11.325 1367.53 10.7947C1367.82 10.2611 1368.22 9.85843 1368.73 9.58665C1369.24 9.31155 1369.81 9.174 1370.46 9.174C1371.11 9.174 1371.69 9.31155 1372.2 9.58665C1372.71 9.86174 1373.11 10.2678 1373.4 10.8047C1373.69 11.3416 1373.83 12.0028 1373.83 12.7884L1373.83 15.3189L1372.31 15.3189L1372.31 13.0369C1372.31 12.5795 1372.23 12.205 1372.07 11.9134C1371.92 11.6217 1371.7 11.4062 1371.42 11.267C1371.14 11.1245 1370.82 11.0533 1370.46 11.0533C1370.1 11.0533 1369.78 11.1245 1369.5 11.267C1369.23 11.4062 1369.02 11.6233 1368.86 11.9183C1368.71 12.21 1368.63 12.5862 1368.63 13.0469L1368.63 14.7372L1377.27 14.7372L1377.27 16.5817Z" fill="#FBFBFF"/>
<defs>
<linearGradient id="paint0_linear_4427_155488" x1="266.054" y1="463" x2="142.054" y2="463" gradientUnits="userSpaceOnUse">
<stop stop-color="#4F60FF"/>
<stop offset="1" stop-color="#2F3A99" stop-opacity="0.25"/>
</linearGradient>
<linearGradient id="paint1_linear_4427_155488" x1="89" y1="116" x2="0" y2="116" gradientUnits="userSpaceOnUse">
<stop stop-color="#FF2C1F"/>
<stop offset="1" stop-color="#991B12" stop-opacity="0.15"/>
</linearGradient>
<linearGradient id="paint2_linear_4427_155488" x1="1472.51" y1="497" x2="1385.51" y2="497" gradientUnits="userSpaceOnUse">
<stop stop-color="#AA1FFF"/>
<stop offset="1" stop-color="#661299" stop-opacity="0.15"/>
</linearGradient>
<linearGradient id="paint3_linear_4427_155488" x1="979.487" y1="318" x2="846.487" y2="318" gradientUnits="userSpaceOnUse">
<stop stop-color="#591FFF"/>
<stop offset="1" stop-color="#351299" stop-opacity="0.05"/>
</linearGradient>
<linearGradient id="paint4_linear_4427_155488" x1="1445.27" y1="101" x2="1358.27" y2="101" gradientUnits="userSpaceOnUse">
<stop stop-color="#AA1FFF"/>
<stop offset="1" stop-color="#661299" stop-opacity="0.15"/>
</linearGradient>
</defs>
</svg>
