<svg width="256" height="256" viewBox="0 0 256 256" fill="none" xmlns="http://www.w3.org/2000/svg">
<path d="M48 64H256V144C256 170.5 234.5 192 208 192H0V112C0 85.5 21.5 64 48 64Z" fill="#38A7FF"/>
<path d="M81.2501 152H73.1251V133.25C73.1251 132.187 72.9376 131.239 72.5626 130.406C72.2084 129.552 71.7188 128.823 71.0938 128.219C70.4688 127.614 69.7293 127.156 68.8751 126.844C68.0418 126.51 67.1355 126.344 66.1563 126.344H51.9376V152H43.8126V122.25C43.8126 121.687 43.9168 121.167 44.1251 120.687C44.3334 120.187 44.6251 119.76 45.0001 119.406C45.3751 119.031 45.8126 118.739 46.3126 118.531C46.8126 118.323 47.3438 118.219 47.9063 118.219H66.2188C67.2397 118.219 68.3126 118.333 69.4376 118.562C70.5834 118.792 71.7084 119.167 72.8126 119.687C73.9376 120.187 75.0001 120.833 76.0001 121.625C77.0209 122.396 77.9168 123.344 78.6876 124.469C79.4793 125.573 80.1043 126.854 80.5626 128.312C81.0209 129.771 81.2501 131.417 81.2501 133.25V152Z" fill="white"/>
<path d="M125.125 140.594C125.125 141.989 124.948 143.25 124.594 144.375C124.24 145.479 123.771 146.458 123.188 147.312C122.604 148.146 121.927 148.864 121.156 149.469C120.386 150.052 119.573 150.531 118.719 150.906C117.886 151.281 117.031 151.562 116.156 151.75C115.302 151.917 114.49 152 113.719 152H99.0626C97.9376 152 96.7084 151.802 95.3751 151.406C94.0418 151.01 92.8022 150.364 91.6563 149.469C90.5313 148.552 89.5834 147.375 88.8126 145.937C88.0626 144.479 87.6876 142.698 87.6876 140.594V129.594C87.6876 127.51 88.0626 125.75 88.8126 124.312C89.5834 122.854 90.5313 121.677 91.6563 120.781C92.8022 119.864 94.0418 119.208 95.3751 118.812C96.7084 118.417 97.9376 118.219 99.0626 118.219H113.719C115.802 118.219 117.573 118.594 119.031 119.344C120.49 120.094 121.667 121.042 122.563 122.187C123.458 123.312 124.104 124.542 124.5 125.875C124.917 127.208 125.125 128.448 125.125 129.594V140.594ZM117 129.656C117 128.531 116.719 127.698 116.156 127.156C115.594 126.614 114.781 126.344 113.719 126.344H99.1251C98.0418 126.344 97.2188 126.625 96.6563 127.187C96.0938 127.729 95.8126 128.531 95.8126 129.594V140.594C95.8126 141.656 96.0938 142.469 96.6563 143.031C97.2188 143.594 98.0418 143.875 99.1251 143.875H113.719C114.823 143.875 115.646 143.594 116.188 143.031C116.729 142.469 117 141.656 117 140.594V129.656Z" fill="white"/>
<path d="M169.125 140.594C169.125 141.989 168.948 143.25 168.594 144.375C168.24 145.479 167.771 146.458 167.188 147.312C166.604 148.146 165.927 148.864 165.156 149.469C164.386 150.052 163.573 150.531 162.719 150.906C161.886 151.281 161.031 151.562 160.156 151.75C159.302 151.917 158.49 152 157.719 152H143.063C141.667 152 140.417 151.823 139.313 151.469C138.208 151.114 137.229 150.646 136.375 150.062C135.542 149.458 134.823 148.771 134.219 148C133.636 147.229 133.156 146.427 132.781 145.594C132.406 144.739 132.125 143.885 131.938 143.031C131.771 142.156 131.688 141.344 131.688 140.594V129.594C131.688 127.51 132.063 125.75 132.813 124.312C133.583 122.854 134.531 121.677 135.656 120.781C136.802 119.864 138.042 119.208 139.375 118.812C140.708 118.417 141.938 118.219 143.063 118.219H157.719V126.344H143.125C142.042 126.344 141.219 126.625 140.656 127.187C140.094 127.729 139.813 128.531 139.813 129.594V140.531C139.813 141.635 140.083 142.469 140.625 143.031C141.188 143.594 142 143.875 143.063 143.875H157.719C158.823 143.875 159.646 143.594 160.188 143.031C160.729 142.469 161 141.656 161 140.594V103.937H169.125V140.594Z" fill="white"/>
<path d="M213.219 129.406C213.219 130.531 213.021 131.75 212.625 133.062C212.229 134.354 211.583 135.562 210.688 136.687C209.813 137.792 208.656 138.719 207.219 139.469C205.802 140.219 204.073 140.594 202.031 140.594H187.375V132.875H202.031C203.136 132.875 203.99 132.542 204.594 131.875C205.198 131.187 205.5 130.344 205.5 129.344C205.5 128.281 205.156 127.448 204.469 126.844C203.802 126.239 202.99 125.937 202.031 125.937H187.375C186.271 125.937 185.417 126.281 184.813 126.969C184.208 127.635 183.906 128.469 183.906 129.469V140.812C183.906 141.896 184.24 142.739 184.906 143.344C185.594 143.948 186.438 144.25 187.438 144.25H202.031V152H187.375C186.25 152 185.031 151.802 183.719 151.406C182.427 151.01 181.219 150.375 180.094 149.5C178.99 148.604 178.063 147.448 177.313 146.031C176.563 144.594 176.188 142.854 176.188 140.812V129.406C176.188 128.281 176.386 127.073 176.781 125.781C177.177 124.469 177.813 123.26 178.688 122.156C179.583 121.031 180.74 120.094 182.156 119.344C183.594 118.594 185.333 118.219 187.375 118.219H202.031C203.156 118.219 204.365 118.417 205.656 118.812C206.969 119.208 208.177 119.854 209.281 120.75C210.406 121.625 211.344 122.781 212.094 124.219C212.844 125.635 213.219 127.364 213.219 129.406Z" fill="white"/>
</svg>
